PathFileType  4	(X/Y/Z) C:\Users\antoi\Documents\MyRepositories\mobilecap\ResultsAnalysis
DataRate	CameraRate	NumFrames	NumMarkers	Units	OrigDataRate	OrigDataStartFrame	OrigNumFrames
100.0	100.0	4	51	mm	100.0	17	132
Frame#	Time	r_knee			r_shank_antsup			r_ankle			r_calc			r_5meta			r_toe			L_knee			L_shank_antsup			L_ankle			L_calc			L_5meta			L_toe			r_sh2			r_sh3			r_sh4			L_sh2			L_sh3			r_thigh1			r_thigh2			r_thigh3			r_thigh4			r_thigh5			L_thigh1			L_thigh2			L_thigh3			L_thigh4			r.ASIS			r.PSIS			L.ASIS			L.PSIS			C7			R_Shoulder			L_Shoulder			R_Sternum			L_Sternum			R_humerus			R_elbow_med			R_elbow_lat			R_forearm			R_wrist_radius			R_wrist_ulna			L_humerus			L_elbow_med			L_elbow_lat			L_forearm			L_wrist_radius			L_wrist_ulna			R_HJC			L_HJC			R_HJC_reg			L_HJC_reg			
		X1	Y1	Z1	X2	Y2	Z2	X3	Y3	Z3	X4	Y4	Z4	X5	Y5	Z5	X6	Y6	Z6	X7	Y7	Z7	X8	Y8	Z8	X9	Y9	Z9	X10	Y10	Z10	X11	Y11	Z11	X12	Y12	Z12	X13	Y13	Z13	X14	Y14	Z14	X15	Y15	Z15	X16	Y16	Z16	X17	Y17	Z17	X18	Y18	Z18	X19	Y19	Z19	X20	Y20	Z20	X21	Y21	Z21	X22	Y22	Z22	X23	Y23	Z23	X24	Y24	Z24	X25	Y25	Z25	X26	Y26	Z26	X27	Y27	Z27	X28	Y28	Z28	X29	Y29	Z29	X30	Y30	Z30	X31	Y31	Z31	X32	Y32	Z32	X33	Y33	Z33	X34	Y34	Z34	X35	Y35	Z35	X36	Y36	Z36	X37	Y37	Z37	X38	Y38	Z38	X39	Y39	Z39	X40	Y40	Z40	X41	Y41	Z41	X42	Y42	Z42	X43	Y43	Z43	X44	Y44	Z44	X45	Y45	Z45	X46	Y46	Z46	X47	Y47	Z47	X48	Y48	Z48	X49	Y49	Z49	X50	Y50	Z50	X51	Y51	Z51	

17	0.16000000	197.02731	490.23507	-44.60759	239.73611	423.29021	-67.75616	170.09999	93.51062	-106.67577	104.52303	67.93710	-151.18501	269.50296	44.31253	-66.73161	323.27094	71.62716	-118.52020	64.93911	467.24519	-334.11529	25.18107	379.69025	-336.16339	-253.47330	253.85140	-268.48369	-299.90589	300.48738	-210.04464	-281.77628	128.49886	-294.68819	-223.68136	103.50280	-256.29845	218.85798	307.96569	-55.38566	162.28757	430.75400	-36.39967	145.36826	319.75595	-47.71686	-17.30202	457.91986	-326.88750	-118.67240	390.62442	-316.09829	184.05765	812.69322	8.17800	208.07372	701.27420	-6.35345	99.14799	672.39399	14.19387	76.44579	785.83182	31.32021	158.02006	666.87312	23.56720	72.81465	731.29607	-361.00752	95.90197	596.11853	-352.58540	-19.73705	715.22295	-293.86905	6.20969	578.05487	-294.47542	169.24970	960.15443	-42.98048	-30.85235	996.56754	-95.39772	136.84260	924.24078	-290.30545	-52.01949	990.09003	-194.25297	-51.62610	1391.58984	-179.61452	62.15713	1370.99875	-6.36221	19.93730	1358.87550	-362.42849	92.43966	1372.86039	-166.40855	92.78926	1373.00870	-209.96688	71.76113	1236.54254	59.47282	16.43403	1023.36927	19.02261	24.25549	1043.23066	88.61387	92.20654	926.46364	126.45831	124.93642	795.81083	150.59637	93.03386	789.92593	165.76417	52.18912	1244.24520	-418.38319	73.09557	1008.56582	-351.90384	81.01393	1030.88275	-427.63170	184.76764	976.14745	-427.28667	294.70134	860.92279	-430.32032	270.51718	845.38383	-449.12540	87.94892	880.96861	-45.82631	57.43174	857.65847	-248.69634	98.31391	876.85123	-57.93685	63.56067	866.21501	-220.24551	
18	0.17000000	201.60966	490.13122	-44.34141	243.78036	422.69543	-67.66193	170.29499	93.62507	-106.73235	104.60620	67.98974	-151.19168	269.51321	44.12973	-66.70670	323.32015	71.46339	-118.49370	90.18405	470.66252	-336.60305	52.10402	382.61398	-338.21683	-226.75043	258.23692	-270.58225	-274.75213	303.21298	-211.61331	-252.75468	133.60749	-299.78714	-195.22752	108.52042	-260.88720	221.65344	307.52831	-55.24390	166.44991	430.92351	-36.05027	148.32790	320.12718	-47.29661	9.66698	460.97201	-329.79578	-91.91472	393.88974	-319.24721	193.85888	812.57859	9.10399	215.90926	700.83827	-5.42062	106.69717	673.87133	13.98041	85.50572	787.84739	31.65048	165.04158	667.28917	23.91022	88.89648	734.50967	-361.42243	115.93850	599.81862	-354.39059	-2.51312	714.78311	-293.31707	27.72791	578.90421	-294.73832	181.01621	961.95531	-42.29633	-19.18694	998.29722	-95.14850	148.71966	925.77569	-289.78155	-40.20860	991.64941	-194.03574	-39.41920	1393.62885	-178.61243	76.02006	1372.76883	-6.42379	30.23019	1360.43748	-362.08731	104.66246	1374.61746	-166.69769	104.60385	1374.71212	-210.37976	88.19287	1238.37355	59.03454	33.72437	1024.61016	20.30329	43.41139	1044.60681	89.45777	113.83552	928.69383	125.32628	148.95391	798.67115	148.21569	117.67136	792.30456	164.36923	60.50269	1244.99899	-417.97006	79.37437	1009.54645	-350.09049	86.70205	1031.24581	-425.93339	188.54047	973.05197	-427.28251	294.16817	853.79100	-432.22054	268.85352	838.94064	-450.18776	99.62305	882.76044	-45.26739	69.34483	859.20454	-248.14813	109.97115	878.65405	-57.23790	75.43614	867.73246	-219.69603	
19	0.18000000	205.96478	490.13406	-44.23626	247.41627	422.20023	-67.70294	170.49229	93.77176	-106.80635	104.69228	68.04791	-151.20663	269.57005	44.02986	-66.69595	323.37331	71.32575	-118.45963	115.13845	474.68506	-338.73318	78.90696	386.06871	-340.20199	-199.19551	261.14756	-272.57313	-248.92657	304.25874	-212.98617	-222.54349	137.21446	-304.71532	-165.33559	112.29424	-265.53207	224.18612	307.21928	-55.23442	170.22801	431.15799	-35.84417	150.99771	320.55442	-47.00785	36.14962	464.19573	-332.23819	-65.25779	396.71773	-321.95098	203.47604	812.56306	9.69768	223.56482	700.51141	-4.86543	114.26335	675.41377	13.82102	94.53986	789.87573	32.06414	172.15053	667.85927	24.08990	104.98998	738.11581	-361.64278	135.84070	604.00064	-355.88334	14.59004	714.79717	-292.71766	49.11501	580.25357	-294.88030	192.54513	963.75420	-41.65590	-7.60213	1000.13399	-94.81340	160.52003	927.70809	-289.31186	-28.44844	993.51165	-193.73688	-27.28387	1395.81526	-177.69775	89.72632	1374.64900	-6.57822	40.46455	1362.14405	-361.78282	116.77529	1376.47653	-167.05531	116.40948	1376.54203	-210.86369	104.48451	1240.36394	58.44662	50.98552	1025.97703	21.55940	62.62571	1046.16746	90.17299	135.53509	931.19910	123.95317	173.12236	801.93001	145.44512	142.65890	795.00364	162.56314	68.69488	1245.94039	-417.57542	85.53731	1010.79692	-348.12186	92.16931	1031.79660	-424.09158	191.84721	970.13877	-427.23813	292.75444	846.94710	-434.03457	266.31969	832.81176	-451.25918	111.14579	884.55761	-44.83606	81.13076	861.11162	-247.76937	121.44819	880.46499	-56.75782	87.18491	869.58070	-219.35219	
20	0.19000000	210.03478	490.20543	-44.28824	250.61471	421.76637	-67.77738	170.68699	93.94728	-106.91858	104.76726	68.10914	-151.22763	269.65624	44.01161	-66.68779	323.42906	71.20860	-118.41907	139.77015	479.13534	-340.51384	105.48369	389.95438	-342.15292	-171.01881	262.57573	-274.54692	-222.49759	303.62037	-214.30455	-191.36608	139.26783	-309.36360	-134.18343	114.82283	-270.10460	226.33249	307.01454	-55.31566	173.51791	431.45946	-35.88130	153.24034	321.04956	-46.95705	62.08397	467.46889	-334.24744	-38.77847	399.04119	-324.18120	213.00167	812.62300	9.96086	231.15680	700.27554	-4.69421	121.82296	676.99404	13.69283	103.62663	791.88070	32.53704	179.36755	668.52738	24.09249	121.10882	741.99429	-361.73058	155.65178	608.56807	-357.09157	31.59053	715.20506	-292.15989	70.34985	581.99504	-295.05810	203.88134	965.54341	-41.03453	3.94351	1002.04370	-94.41359	172.30417	930.08838	-288.87028	-16.72818	995.62847	-193.37124	-15.21470	1398.11672	-176.87563	103.26244	1376.65293	-6.81723	50.68990	1363.98537	-361.50065	128.79556	1378.41982	-167.46623	128.22588	1378.48268	-211.40012	120.57063	1242.53949	57.74442	68.22680	1027.50144	22.71340	81.80908	1047.91778	90.73801	157.25272	934.00003	122.33217	197.39080	805.56424	142.35088	167.91737	798.06257	160.40401	76.84356	1247.08710	-417.18853	91.63033	1012.32421	-346.01461	97.44002	1032.53923	-422.11756	194.69705	967.43966	-427.17460	290.46146	840.44838	-435.73193	262.94901	827.07668	-452.30358	122.56930	886.34050	-44.54079	92.87368	863.38768	-247.57518	132.83284	882.32055	-56.44856	98.84616	871.77368	-219.14796	
